{
	"asset":{
		"generator":"Khronos glTF Blender I/O v3.5.30",
		"version":"2.0"
	},
	"scene":0,
	"scenes":[
		{
			"name":"Scene",
			"nodes":[
				0,
				1,
				2,
				3,
				4,
				5,
				6,
				7,
				8,
				9,
				10,
				11,
				12
			]
		}
	],
	"nodes":[
		{
			"mesh":0,
			"name":"Curve",
			"rotation":[
				0,
				0,
				0.7071068286895752,
				0.7071068286895752
			],
			"scale":[
				55.514156341552734,
				55.514156341552734,
				55.514156341552734
			],
			"translation":[
				0,
				0,
				6.858626365661621
			]
		},
		{
			"mesh":1,
			"name":"Curve.001",
			"rotation":[
				0,
				0,
				0.7071068286895752,
				0.7071068286895752
			],
			"scale":[
				55.514156341552734,
				55.514156341552734,
				55.514156341552734
			],
			"translation":[
				0,
				0,
				6.858626365661621
			]
		},
		{
			"mesh":2,
			"name":"Curve.002",
			"rotation":[
				0,
				0,
				0.7071068286895752,
				0.7071068286895752
			],
			"scale":[
				55.514156341552734,
				55.514156341552734,
				55.514156341552734
			],
			"translation":[
				0,
				0,
				6.858626365661621
			]
		},
		{
			"mesh":3,
			"name":"Curve.003",
			"rotation":[
				0,
				0,
				0.7071068286895752,
				0.7071068286895752
			],
			"scale":[
				55.514156341552734,
				55.514156341552734,
				55.514156341552734
			],
			"translation":[
				0,
				0,
				6.858626365661621
			]
		},
		{
			"mesh":4,
			"name":"Curve.004",
			"rotation":[
				0,
				0,
				0.7071068286895752,
				0.7071068286895752
			],
			"scale":[
				55.514156341552734,
				55.514156341552734,
				55.514156341552734
			],
			"translation":[
				0,
				0,
				6.858626365661621
			]
		},
		{
			"mesh":5,
			"name":"Curve.005",
			"rotation":[
				0,
				0,
				0.7071068286895752,
				0.7071068286895752
			],
			"scale":[
				55.514156341552734,
				55.514156341552734,
				55.514156341552734
			],
			"translation":[
				0,
				0,
				6.858626365661621
			]
		},
		{
			"mesh":6,
			"name":"Curve.006",
			"rotation":[
				0,
				0,
				0.7071068286895752,
				0.7071068286895752
			],
			"scale":[
				55.514156341552734,
				55.514156341552734,
				55.514156341552734
			],
			"translation":[
				0,
				0,
				6.858626365661621
			]
		},
		{
			"mesh":7,
			"name":"Curve.007",
			"rotation":[
				0,
				0,
				0.7071068286895752,
				0.7071068286895752
			],
			"scale":[
				55.514156341552734,
				55.514156341552734,
				55.514156341552734
			],
			"translation":[
				0,
				0,
				6.858626365661621
			]
		},
		{
			"mesh":8,
			"name":"Curve.008",
			"rotation":[
				0,
				0,
				0.7071068286895752,
				0.7071068286895752
			],
			"scale":[
				55.514156341552734,
				55.514156341552734,
				55.514156341552734
			],
			"translation":[
				0,
				0,
				6.858626365661621
			]
		},
		{
			"mesh":9,
			"name":"Curve.009",
			"rotation":[
				0,
				0,
				0.7071068286895752,
				0.7071068286895752
			],
			"scale":[
				55.514156341552734,
				55.514156341552734,
				55.514156341552734
			],
			"translation":[
				0,
				0,
				6.858626365661621
			]
		},
		{
			"mesh":10,
			"name":"Curve.010",
			"rotation":[
				0,
				0,
				0.7071068286895752,
				0.7071068286895752
			],
			"scale":[
				55.514156341552734,
				55.514156341552734,
				55.514156341552734
			],
			"translation":[
				0,
				0,
				6.858626365661621
			]
		},
		{
			"mesh":11,
			"name":"Curve.011",
			"rotation":[
				0,
				0,
				0.7071068286895752,
				0.7071068286895752
			],
			"scale":[
				55.514156341552734,
				55.514156341552734,
				55.514156341552734
			],
			"translation":[
				0,
				0,
				6.858626365661621
			]
		},
		{
			"mesh":12,
			"name":"Curve.012",
			"rotation":[
				0,
				0,
				0.7071068286895752,
				0.7071068286895752
			],
			"scale":[
				55.514156341552734,
				55.514156341552734,
				55.514156341552734
			],
			"translation":[
				0,
				0,
				6.858626365661621
			]
		}
	],
	"materials":[
		{
			"doubleSided":true,
			"name":"Material.001",
			"pbrMetallicRoughness":{
				"baseColorFactor":[
					1,
					0.9403924942016602,
					0.9403924942016602,
					1
				],
				"metallicFactor":0,
				"roughnessFactor":0.5
			}
		},
		{
			"doubleSided":true,
			"name":"Material.002",
			"pbrMetallicRoughness":{
				"baseColorFactor":[
					0.8000000715255737,
					0.02227700501680374,
					0.057274430990219116,
					1
				],
				"metallicFactor":0,
				"roughnessFactor":0.5
			}
		}
	],
	"meshes":[
		{
			"name":"Curve",
			"primitives":[
				{
					"attributes":{
						"POSITION":0,
						"TEXCOORD_0":1,
						"NORMAL":2
					},
					"indices":3,
					"material":0
				}
			]
		},
		{
			"name":"Curve.001",
			"primitives":[
				{
					"attributes":{
						"POSITION":4,
						"TEXCOORD_0":5,
						"NORMAL":6
					},
					"indices":7,
					"material":0
				}
			]
		},
		{
			"name":"Curve.002",
			"primitives":[
				{
					"attributes":{
						"POSITION":8,
						"TEXCOORD_0":9,
						"NORMAL":10
					},
					"indices":11,
					"material":0
				}
			]
		},
		{
			"name":"Curve.003",
			"primitives":[
				{
					"attributes":{
						"POSITION":12,
						"TEXCOORD_0":13,
						"NORMAL":14
					},
					"indices":15,
					"material":0
				}
			]
		},
		{
			"name":"Curve.004",
			"primitives":[
				{
					"attributes":{
						"POSITION":16,
						"TEXCOORD_0":17,
						"NORMAL":18
					},
					"indices":19,
					"material":0
				}
			]
		},
		{
			"name":"Curve.005",
			"primitives":[
				{
					"attributes":{
						"POSITION":20,
						"TEXCOORD_0":21,
						"NORMAL":22
					},
					"indices":23,
					"material":0
				}
			]
		},
		{
			"name":"Curve.006",
			"primitives":[
				{
					"attributes":{
						"POSITION":24,
						"TEXCOORD_0":25,
						"NORMAL":26
					},
					"indices":27,
					"material":0
				}
			]
		},
		{
			"name":"Curve.007",
			"primitives":[
				{
					"attributes":{
						"POSITION":28,
						"TEXCOORD_0":29,
						"NORMAL":30
					},
					"indices":31,
					"material":1
				}
			]
		},
		{
			"name":"Curve.008",
			"primitives":[
				{
					"attributes":{
						"POSITION":32,
						"TEXCOORD_0":33,
						"NORMAL":34
					},
					"indices":35,
					"material":1
				}
			]
		},
		{
			"name":"Curve.009",
			"primitives":[
				{
					"attributes":{
						"POSITION":36,
						"TEXCOORD_0":37,
						"NORMAL":38
					},
					"indices":39,
					"material":1
				}
			]
		},
		{
			"name":"Curve.010",
			"primitives":[
				{
					"attributes":{
						"POSITION":40,
						"TEXCOORD_0":41,
						"NORMAL":42
					},
					"indices":43,
					"material":1
				}
			]
		},
		{
			"name":"Curve.011",
			"primitives":[
				{
					"attributes":{
						"POSITION":44,
						"TEXCOORD_0":45,
						"NORMAL":46
					},
					"indices":47,
					"material":1
				}
			]
		},
		{
			"name":"Curve.012",
			"primitives":[
				{
					"attributes":{
						"POSITION":48,
						"TEXCOORD_0":49,
						"NORMAL":50
					},
					"indices":51,
					"material":1
				}
			]
		}
	],
	"accessors":[
		{
			"bufferView":0,
			"componentType":5126,
			"count":674,
			"max":[
				0.03689778596162796,
				0.004999999888241291,
				-0.0480278879404068
			],
			"min":[
				0.004699224140495062,
				-0.004999999888241291,
				-0.076810821890831
			],
			"type":"VEC3"
		},
		{
			"bufferView":1,
			"componentType":5126,
			"count":674,
			"type":"VEC2"
		},
		{
			"bufferView":2,
			"componentType":5126,
			"count":674,
			"type":"VEC3"
		},
		{
			"bufferView":3,
			"componentType":5123,
			"count":2004,
			"type":"SCALAR"
		},
		{
			"bufferView":4,
			"componentType":5126,
			"count":722,
			"max":[
				0.03715531527996063,
				0.004999999888241291,
				-0.0038290172815322876
			],
			"min":[
				0.004744252189993858,
				-0.004999999888241291,
				-0.028368152678012848
			],
			"type":"VEC3"
		},
		{
			"bufferView":5,
			"componentType":5126,
			"count":722,
			"type":"VEC2"
		},
		{
			"bufferView":6,
			"componentType":5126,
			"count":722,
			"type":"VEC3"
		},
		{
			"bufferView":7,
			"componentType":5123,
			"count":2148,
			"type":"SCALAR"
		},
		{
			"bufferView":8,
			"componentType":5126,
			"count":818,
			"max":[
				0.03714967146515846,
				0.004999999888241291,
				-0.12567779421806335
			],
			"min":[
				0.004755541682243347,
				-0.004999999888241291,
				-0.15024831891059875
			],
			"type":"VEC3"
		},
		{
			"bufferView":9,
			"componentType":5126,
			"count":818,
			"type":"VEC2"
		},
		{
			"bufferView":10,
			"componentType":5126,
			"count":818,
			"type":"VEC3"
		},
		{
			"bufferView":11,
			"componentType":5123,
			"count":2436,
			"type":"SCALAR"
		},
		{
			"bufferView":12,
			"componentType":5126,
			"count":674,
			"max":[
				0.03703571856021881,
				0.004999999888241291,
				-0.1649220585823059
			],
			"min":[
				0.0046994490548968315,
				-0.004999999888241291,
				-0.18651562929153442
			],
			"type":"VEC3"
		},
		{
			"bufferView":13,
			"componentType":5126,
			"count":674,
			"type":"VEC2"
		},
		{
			"bufferView":14,
			"componentType":5126,
			"count":674,
			"type":"VEC3"
		},
		{
			"bufferView":15,
			"componentType":5123,
			"count":2004,
			"type":"SCALAR"
		},
		{
			"bufferView":16,
			"componentType":5126,
			"count":578,
			"max":[
				0.03693366050720215,
				0.004999999888241291,
				-0.10113805532455444
			],
			"min":[
				0.004605006892234087,
				-0.004999999888241291,
				-0.11162298917770386
			],
			"type":"VEC3"
		},
		{
			"bufferView":17,
			"componentType":5126,
			"count":578,
			"type":"VEC2"
		},
		{
			"bufferView":18,
			"componentType":5126,
			"count":578,
			"type":"VEC3"
		},
		{
			"bufferView":19,
			"componentType":5123,
			"count":1716,
			"type":"SCALAR"
		},
		{
			"bufferView":20,
			"componentType":5126,
			"count":338,
			"max":[
				0.03696339949965477,
				0.004999999888241291,
				-0.20689423382282257
			],
			"min":[
				0.004707563202828169,
				-0.004999999888241291,
				-0.21342794597148895
			],
			"type":"VEC3"
		},
		{
			"bufferView":21,
			"componentType":5126,
			"count":338,
			"type":"VEC2"
		},
		{
			"bufferView":22,
			"componentType":5126,
			"count":338,
			"type":"VEC3"
		},
		{
			"bufferView":23,
			"componentType":5123,
			"count":996,
			"type":"SCALAR"
		},
		{
			"bufferView":24,
			"componentType":5126,
			"count":338,
			"max":[
				0.03690977767109871,
				0.004999999888241291,
				-0.22745627164840698
			],
			"min":[
				0.004693451337516308,
				-0.004999999888241291,
				-0.23348869383335114
			],
			"type":"VEC3"
		},
		{
			"bufferView":25,
			"componentType":5126,
			"count":338,
			"type":"VEC2"
		},
		{
			"bufferView":26,
			"componentType":5126,
			"count":338,
			"type":"VEC3"
		},
		{
			"bufferView":27,
			"componentType":5123,
			"count":996,
			"type":"SCALAR"
		},
		{
			"bufferView":28,
			"componentType":5126,
			"count":194,
			"max":[
				0.036971867084503174,
				0.004999999888241291,
				-0.14433477818965912
			],
			"min":[
				0.031152324751019478,
				-0.004999999888241291,
				-0.15053965151309967
			],
			"type":"VEC3"
		},
		{
			"bufferView":29,
			"componentType":5126,
			"count":194,
			"type":"VEC2"
		},
		{
			"bufferView":30,
			"componentType":5126,
			"count":194,
			"type":"VEC3"
		},
		{
			"bufferView":31,
			"componentType":5123,
			"count":564,
			"type":"SCALAR"
		},
		{
			"bufferView":32,
			"componentType":5126,
			"count":194,
			"max":[
				0.03696801885962486,
				0.004999999888241291,
				-0.022460609674453735
			],
			"min":[
				0.031157970428466797,
				-0.004999999888241291,
				-0.028566718101501465
			],
			"type":"VEC3"
		},
		{
			"bufferView":33,
			"componentType":5126,
			"count":194,
			"type":"VEC2"
		},
		{
			"bufferView":34,
			"componentType":5126,
			"count":194,
			"type":"VEC3"
		},
		{
			"bufferView":35,
			"componentType":5123,
			"count":564,
			"type":"SCALAR"
		},
		{
			"bufferView":36,
			"componentType":5126,
			"count":194,
			"max":[
				0.023693040013313293,
				0.004999999888241291,
				-0.21695363521575928
			],
			"min":[
				0.017932767048478127,
				-0.004999999888241291,
				-0.22307386994361877
			],
			"type":"VEC3"
		},
		{
			"bufferView":37,
			"componentType":5126,
			"count":194,
			"type":"VEC2"
		},
		{
			"bufferView":38,
			"componentType":5126,
			"count":194,
			"type":"VEC3"
		},
		{
			"bufferView":39,
			"componentType":5123,
			"count":564,
			"type":"SCALAR"
		},
		{
			"bufferView":40,
			"componentType":5126,
			"count":194,
			"max":[
				0.01044243574142456,
				0.004999999888241291,
				-0.04317457973957062
			],
			"min":[
				0.004625716712325811,
				-0.004999999888241291,
				-0.04935970902442932
			],
			"type":"VEC3"
		},
		{
			"bufferView":41,
			"componentType":5126,
			"count":194,
			"type":"VEC2"
		},
		{
			"bufferView":42,
			"componentType":5126,
			"count":194,
			"type":"VEC3"
		},
		{
			"bufferView":43,
			"componentType":5123,
			"count":564,
			"type":"SCALAR"
		},
		{
			"bufferView":44,
			"componentType":5126,
			"count":194,
			"max":[
				0.036966219544410706,
				0.004999999888241291,
				-0.18639761209487915
			],
			"min":[
				0.031126925721764565,
				-0.004999999888241291,
				-0.19247834384441376
			],
			"type":"VEC3"
		},
		{
			"bufferView":45,
			"componentType":5126,
			"count":194,
			"type":"VEC2"
		},
		{
			"bufferView":46,
			"componentType":5126,
			"count":194,
			"type":"VEC3"
		},
		{
			"bufferView":47,
			"componentType":5123,
			"count":564,
			"type":"SCALAR"
		},
		{
			"bufferView":48,
			"componentType":5126,
			"count":194,
			"max":[
				0.010422679595649242,
				0.004999999888241291,
				-0.09101340174674988
			],
			"min":[
				0.004693451337516308,
				-0.004999999888241291,
				-0.09712235629558563
			],
			"type":"VEC3"
		},
		{
			"bufferView":49,
			"componentType":5126,
			"count":194,
			"type":"VEC2"
		},
		{
			"bufferView":50,
			"componentType":5126,
			"count":194,
			"type":"VEC3"
		},
		{
			"bufferView":51,
			"componentType":5123,
			"count":564,
			"type":"SCALAR"
		}
	],
	"bufferViews":[
		{
			"buffer":0,
			"byteLength":8088,
			"byteOffset":0,
			"target":34962
		},
		{
			"buffer":0,
			"byteLength":5392,
			"byteOffset":8088,
			"target":34962
		},
		{
			"buffer":0,
			"byteLength":8088,
			"byteOffset":13480,
			"target":34962
		},
		{
			"buffer":0,
			"byteLength":4008,
			"byteOffset":21568,
			"target":34963
		},
		{
			"buffer":0,
			"byteLength":8664,
			"byteOffset":25576,
			"target":34962
		},
		{
			"buffer":0,
			"byteLength":5776,
			"byteOffset":34240,
			"target":34962
		},
		{
			"buffer":0,
			"byteLength":8664,
			"byteOffset":40016,
			"target":34962
		},
		{
			"buffer":0,
			"byteLength":4296,
			"byteOffset":48680,
			"target":34963
		},
		{
			"buffer":0,
			"byteLength":9816,
			"byteOffset":52976,
			"target":34962
		},
		{
			"buffer":0,
			"byteLength":6544,
			"byteOffset":62792,
			"target":34962
		},
		{
			"buffer":0,
			"byteLength":9816,
			"byteOffset":69336,
			"target":34962
		},
		{
			"buffer":0,
			"byteLength":4872,
			"byteOffset":79152,
			"target":34963
		},
		{
			"buffer":0,
			"byteLength":8088,
			"byteOffset":84024,
			"target":34962
		},
		{
			"buffer":0,
			"byteLength":5392,
			"byteOffset":92112,
			"target":34962
		},
		{
			"buffer":0,
			"byteLength":8088,
			"byteOffset":97504,
			"target":34962
		},
		{
			"buffer":0,
			"byteLength":4008,
			"byteOffset":105592,
			"target":34963
		},
		{
			"buffer":0,
			"byteLength":6936,
			"byteOffset":109600,
			"target":34962
		},
		{
			"buffer":0,
			"byteLength":4624,
			"byteOffset":116536,
			"target":34962
		},
		{
			"buffer":0,
			"byteLength":6936,
			"byteOffset":121160,
			"target":34962
		},
		{
			"buffer":0,
			"byteLength":3432,
			"byteOffset":128096,
			"target":34963
		},
		{
			"buffer":0,
			"byteLength":4056,
			"byteOffset":131528,
			"target":34962
		},
		{
			"buffer":0,
			"byteLength":2704,
			"byteOffset":135584,
			"target":34962
		},
		{
			"buffer":0,
			"byteLength":4056,
			"byteOffset":138288,
			"target":34962
		},
		{
			"buffer":0,
			"byteLength":1992,
			"byteOffset":142344,
			"target":34963
		},
		{
			"buffer":0,
			"byteLength":4056,
			"byteOffset":144336,
			"target":34962
		},
		{
			"buffer":0,
			"byteLength":2704,
			"byteOffset":148392,
			"target":34962
		},
		{
			"buffer":0,
			"byteLength":4056,
			"byteOffset":151096,
			"target":34962
		},
		{
			"buffer":0,
			"byteLength":1992,
			"byteOffset":155152,
			"target":34963
		},
		{
			"buffer":0,
			"byteLength":2328,
			"byteOffset":157144,
			"target":34962
		},
		{
			"buffer":0,
			"byteLength":1552,
			"byteOffset":159472,
			"target":34962
		},
		{
			"buffer":0,
			"byteLength":2328,
			"byteOffset":161024,
			"target":34962
		},
		{
			"buffer":0,
			"byteLength":1128,
			"byteOffset":163352,
			"target":34963
		},
		{
			"buffer":0,
			"byteLength":2328,
			"byteOffset":164480,
			"target":34962
		},
		{
			"buffer":0,
			"byteLength":1552,
			"byteOffset":166808,
			"target":34962
		},
		{
			"buffer":0,
			"byteLength":2328,
			"byteOffset":168360,
			"target":34962
		},
		{
			"buffer":0,
			"byteLength":1128,
			"byteOffset":170688,
			"target":34963
		},
		{
			"buffer":0,
			"byteLength":2328,
			"byteOffset":171816,
			"target":34962
		},
		{
			"buffer":0,
			"byteLength":1552,
			"byteOffset":174144,
			"target":34962
		},
		{
			"buffer":0,
			"byteLength":2328,
			"byteOffset":175696,
			"target":34962
		},
		{
			"buffer":0,
			"byteLength":1128,
			"byteOffset":178024,
			"target":34963
		},
		{
			"buffer":0,
			"byteLength":2328,
			"byteOffset":179152,
			"target":34962
		},
		{
			"buffer":0,
			"byteLength":1552,
			"byteOffset":181480,
			"target":34962
		},
		{
			"buffer":0,
			"byteLength":2328,
			"byteOffset":183032,
			"target":34962
		},
		{
			"buffer":0,
			"byteLength":1128,
			"byteOffset":185360,
			"target":34963
		},
		{
			"buffer":0,
			"byteLength":2328,
			"byteOffset":186488,
			"target":34962
		},
		{
			"buffer":0,
			"byteLength":1552,
			"byteOffset":188816,
			"target":34962
		},
		{
			"buffer":0,
			"byteLength":2328,
			"byteOffset":190368,
			"target":34962
		},
		{
			"buffer":0,
			"byteLength":1128,
			"byteOffset":192696,
			"target":34963
		},
		{
			"buffer":0,
			"byteLength":2328,
			"byteOffset":193824,
			"target":34962
		},
		{
			"buffer":0,
			"byteLength":1552,
			"byteOffset":196152,
			"target":34962
		},
		{
			"buffer":0,
			"byteLength":2328,
			"byteOffset":197704,
			"target":34962
		},
		{
			"buffer":0,
			"byteLength":1128,
			"byteOffset":200032,
			"target":34963
		}
	],
	"buffers":[
		{
			"byteLength":201160,
			"uri":"logo.bin"
		}
	]
}
